<svg width="1856" height="1856" viewBox="0 0 1856 1856" fill="none" xmlns="http://www.w3.org/2000/svg">
<path d="M929 1040.5H1500C1530.5 1040.33 1629.91 1024.98 1671.5 796C1728.71 481 1451.5 25.0002 929 25.0005M928.897 1040.5H357.897C327.397 1040.33 227.988 1024.98 186.397 796C129.184 481 406.397 25.0002 928.897 25.0005M927.75 1040H356.672C326.168 1040.13 226.745 1049.27 185.149 1230.34C127.927 1479.42 417.75 1818 927.75 1840M929 1040H1500.08C1530.58 1040.13 1630.01 1049.27 1671.6 1230.34C1728.82 1479.42 1439 1818 929 1840M1846 928C1846 1435 1435 1846 928 1846C421.003 1846 10 1435 10 928C10 421.003 421.003 10 928 10C1435 10 1846 421.003 1846 928Z" stroke="#C4BAB2" stroke-width="20"/>
<path d="M1251.91 1040.5L928.988 1040L357.885 1040.5C327.385 1040.33 227.976 1024.98 186.385 795.999C129.171 481 406.987 22.9997 929.487 23" stroke="#FF0000" stroke-width="20"/>
</svg>
