<svg width="2206" height="2206" viewBox="0 0 2206 2206" fill="none" xmlns="http://www.w3.org/2000/svg">
<path d="M1104 1215.5H1675C1705.5 1215.33 1804.91 1199.98 1846.5 971C1903.71 656 1626.5 200 1104 200M1103.9 1215.5H532.897C502.397 1215.33 402.988 1199.98 361.397 971C304.184 656 581.397 200 1103.9 200M1102.75 1215H531.672C501.168 1215.13 401.745 1224.27 360.149 1405.34C302.927 1654.42 592.75 1993 1102.75 2015M1104 1215H1675.08C1705.58 1215.13 1805.01 1224.27 1846.6 1405.34C1903.82 1654.42 1614 1993 1104 2015M2021 1103C2021 1610 1610 2021 1103 2021C596.003 2021 185 1610 185 1103C185 596.003 596.003 185 1103 185C1610 185 2021 596.003 2021 1103Z" stroke="#C4BAB2" stroke-width="20"/>
<path d="M1426.91 1215.5L1103.99 1215L532.885 1215.5C502.385 1215.33 402.976 1199.98 361.385 970.999C304.171 656 581.987 198 1104.49 198" stroke="#FF0000" stroke-width="20"/>
</svg>
