<svg width="360" height="360" viewBox="0 0 360 360" fill="none" xmlns="http://www.w3.org/2000/svg">
<g id="path_container_small">
<g id="paths">
<path id="rails" d="M180.191 201.446H289.041C294.856 201.414 313.806 198.488 321.735 154.837C332.641 94.7876 279.796 7.85952 180.191 7.85957M180.171 201.446H71.3203C65.5061 201.414 46.5554 198.488 38.627 154.837C27.7202 94.7876 80.566 7.85952 180.171 7.85957M179.952 201.351H71.0867C65.2717 201.376 46.3185 203.118 38.3889 237.635C27.4807 285.118 82.7301 349.662 179.952 353.856M180.191 201.351H289.056C294.871 201.376 313.824 203.118 321.754 237.635C332.662 285.118 277.413 349.662 180.191 353.856M355 180C355 276.65 276.65 355 180 355C83.3502 355 5 276.65 5 180C5 83.3502 83.3502 5 180 5C276.65 5 355 83.3502 355 180Z" stroke="#C4BAB2" stroke-width="5"/>
<path id="path_001" d="M241.747 201.446L180.188 201.351L71.318 201.446C65.5037 201.415 46.5531 198.488 38.6246 154.837C27.7179 94.7878 80.6783 7.47846 180.283 7.47852" stroke="#FF0000" stroke-width="5"/>
</g>
</g>
</svg>
